<svg width="30" height="30" viewBox="0 0 30 30" fill="none" xmlns="http://www.w3.org/2000/svg">
<path d="M25.5187 4.88719C22.7814 2.14329 19.1359 0.63414 15.2618 0.63414C7.26525 0.63414 0.758284 7.14111 0.758284 15.1376C0.758284 17.6921 1.42466 20.1877 2.69208 22.3894L0.634155 29.9024L8.32362 27.8837C10.4403 29.0401 12.8249 29.6476 15.2552 29.6476H15.2618C23.2518 29.6476 29.9024 23.1407 29.9024 15.1442C29.9024 11.27 28.2561 7.63109 25.5187 4.88719ZM15.2618 27.2043C13.0928 27.2043 10.9695 26.6228 9.12065 25.5253L8.68294 25.2639L4.12283 26.4595L5.33799 22.0104L5.05053 21.5531C3.84191 19.6324 3.2082 17.4177 3.2082 15.1376C3.2082 8.49346 8.6176 3.08405 15.2683 3.08405C18.4891 3.08405 21.5139 4.33841 23.7875 6.61846C26.061 8.89851 27.4591 11.9233 27.4525 15.1442C27.4525 21.7949 21.9059 27.2043 15.2618 27.2043ZM21.8733 18.1755C21.5139 17.9926 19.7304 17.1172 19.3972 16.9996C19.064 16.8754 18.8223 16.8166 18.5806 17.1825C18.3389 17.5483 17.6464 18.3584 17.4308 18.6067C17.2217 18.8484 17.0061 18.8811 16.6468 18.6982C14.517 17.6333 13.1189 16.797 11.7143 14.3863C11.3419 13.7461 12.0867 13.7918 12.7792 12.4068C12.8968 12.1651 12.838 11.956 12.7465 11.7731C12.6551 11.5902 11.9299 9.80661 11.6294 9.08144C11.3354 8.37586 11.0349 8.47386 10.8127 8.4608C10.6037 8.44773 10.3619 8.44773 10.1202 8.44773C9.87849 8.44773 9.48651 8.53919 9.15332 8.89851C8.82013 9.26437 7.8859 10.1398 7.8859 11.9233C7.8859 13.7069 9.18599 15.4316 9.36238 15.6733C9.54531 15.9151 11.9168 19.5736 15.5558 21.1481C17.8554 22.1411 18.757 22.226 19.9068 22.0562C20.6058 21.9516 22.0497 21.1807 22.3502 20.3314C22.6507 19.4821 22.6507 18.757 22.5592 18.6067C22.4743 18.4434 22.2326 18.3519 21.8733 18.1755Z" fill="white"/>
</svg>
